<svg width="20" height="23" viewBox="0 0 20 23" fill="none" xmlns="http://www.w3.org/2000/svg">
<path d="M0.714286 5.89286H19.2857C19.6802 5.89286 20 5.57308 20 5.17857V3.39286C20 2.99835 19.6802 2.67857 19.2857 2.67857H0.714286C0.319777 2.67857 0 2.99835 0 3.39286V5.17857C0 5.57308 0.319777 5.89286 0.714286 5.89286ZM0.714286 13.0357H19.2857C19.6802 13.0357 20 12.7159 20 12.3214V10.5357C20 10.1412 19.6802 9.82143 19.2857 9.82143H0.714286C0.319777 9.82143 0 10.1412 0 10.5357V12.3214C0 12.7159 0.319777 13.0357 0.714286 13.0357ZM0.714286 20.1786H19.2857C19.6802 20.1786 20 19.8588 20 19.4643V17.6786C20 17.2841 19.6802 16.9643 19.2857 16.9643H0.714286C0.319777 16.9643 0 17.2841 0 17.6786V19.4643C0 19.8588 0.319777 20.1786 0.714286 20.1786Z" fill="#FFFAFA"/>
</svg>
